HIERARCHY
ROOT hip
{
  OFFSET 0 0 0
  CHANNELS 6 Xposition Yposition Zposition Zrotation Yrotation Xrotation
  JOINT abdomen
  {
    OFFSET 0 20.6881 -0.73152
    CHANNELS 3 Zrotation Xrotation Yrotation
    JOINT chest
    {
      OFFSET 0 11.7043 -0.48768
      CHANNELS 3 Zrotation Xrotation Yrotation
      JOINT neck
      {
        OFFSET 0 22.1894 -2.19456
        CHANNELS 3 Zrotation Xrotation Yrotation
        JOINT head
        {
          OFFSET -0.24384 7.07133 1.2192
          CHANNELS 3 Zrotation Xrotation Yrotation
          JOINT leftEye
          {
            OFFSET 4.14528 8.04674 8.04672
            CHANNELS 3 Zrotation Xrotation Yrotation
            End Site
            {
              OFFSET 1 0 0
            }
          }
          JOINT rightEye
          {
            OFFSET -3.6576 8.04674 8.04672
            CHANNELS 3 Zrotation Xrotation Yrotation
            End Site
            {
              OFFSET 1 0 0
            }
          }
        }
      }
      JOINT rCollar
      {
        OFFSET -2.68224 19.2634 -4.8768
        CHANNELS 3 Zrotation Xrotation Yrotation
        JOINT rShldr
        {
          OFFSET -8.77824 -1.95073 1.46304
          CHANNELS 3 Zrotation Xrotation Yrotation
          JOINT rForeArm
          {
            OFFSET -28.1742 -1.7115 0.48768
            CHANNELS 3 Zrotation Xrotation Yrotation
            JOINT rHand
            {
              OFFSET -22.5879 0.773209 7.07136
              CHANNELS 3 Zrotation Xrotation Yrotation
              JOINT rThumb1
              {
                OFFSET -1.2192 -0.487915 3.41376
                CHANNELS 3 Zrotation Xrotation Yrotation
                JOINT rThumb2
                {
                  OFFSET -3.37035 -0.52449 3.41376
                  CHANNELS 3 Zrotation Xrotation Yrotation
                  End Site
                  {
                    OFFSET -1.78271 -1.18214 1.43049
                  }
                }
              }
              JOINT rIndex1
              {
                OFFSET -7.75947 0.938293 5.60832
                CHANNELS 3 Zrotation Xrotation Yrotation
                JOINT rIndex2
                {
                  OFFSET -2.54057 -0.884171 1.56538
                  CHANNELS 3 Zrotation Xrotation Yrotation
                  End Site
                  {
                    OFFSET -1.62519 -0.234802 1.16502
                  }
                }
              }
              JOINT rMid1
              {
                OFFSET -8.24714 1.18213 3.41376
                CHANNELS 3 Zrotation Xrotation Yrotation
                JOINT rMid2
                {
                  OFFSET -3.10165 -0.590103 1.0647
                  CHANNELS 3 Zrotation Xrotation Yrotation
                  End Site
                  {
                    OFFSET -2.48547 -0.328903 0.83742
                  }
                }
              }
              JOINT rRing1
              {
                OFFSET -8.82822 0.546677 1.51678
                CHANNELS 3 Zrotation Xrotation Yrotation
                JOINT rRing2
                {
                  OFFSET -2.60934 -0.819778 -0.0198488
                  CHANNELS 3 Zrotation Xrotation Yrotation
                  End Site
                  {
                    OFFSET -2.33842 -0.294052 0.168128
                  }
                }
              }
              JOINT rPinky1
              {
                OFFSET -8.27202 -0.0477905 -0.4584
                CHANNELS 3 Zrotation Xrotation Yrotation
                JOINT rPinky2
                {
                  OFFSET -1.82734 -0.647385 -0.700984
                  CHANNELS 3 Zrotation Xrotation Yrotation
                  End Site
                  {
                    OFFSET -1.69225 -0.51767 -0.607171
                  }
                }
              }
            }
          }
        }
      }
      JOINT lCollar
      {
        OFFSET 2.68224 19.2634 -4.8768
        CHANNELS 3 Zrotation Xrotation Yrotation
        JOINT lShldr
        {
          OFFSET 8.77824 -1.95073 1.46304
          CHANNELS 3 Zrotation Xrotation Yrotation
          JOINT lForeArm
          {
            OFFSET 28.1742 -1.7115 0.48768
            CHANNELS 3 Zrotation Xrotation Yrotation
            JOINT lHand
            {
              OFFSET 22.5879 0.773209 7.07136
              CHANNELS 3 Zrotation Xrotation Yrotation
              JOINT lThumb1
              {
                OFFSET 1.2192 -0.487915 3.41376
                CHANNELS 3 Zrotation Xrotation Yrotation
                JOINT lThumb2
                {
                  OFFSET 3.37035 -0.52449 3.41376
                  CHANNELS 3 Zrotation Xrotation Yrotation
                  End Site
                  {
                    OFFSET 1.78271 -1.18214 1.43049
                  }
                }
              }
              JOINT lIndex1
              {
                OFFSET 7.75947 0.938293 5.60832
                CHANNELS 3 Zrotation Xrotation Yrotation
                JOINT lIndex2
                {
                  OFFSET 2.54057 -0.884171 1.56538
                  CHANNELS 3 Zrotation Xrotation Yrotation
                  End Site
                  {
                    OFFSET 1.62519 -0.234802 1.16502
                  }
                }
              }
              JOINT lMid1
              {
                OFFSET 8.24714 1.18213 3.41376
                CHANNELS 3 Zrotation Xrotation Yrotation
                JOINT lMid2
                {
                  OFFSET 3.10165 -0.590103 1.0647
                  CHANNELS 3 Zrotation Xrotation Yrotation
                  End Site
                  {
                    OFFSET 2.48547 -0.328903 0.83742
                  }
                }
              }
              JOINT lRing1
              {
                OFFSET 8.82822 0.546677 1.51678
                CHANNELS 3 Zrotation Xrotation Yrotation
                JOINT lRing2
                {
                  OFFSET 2.60934 -0.819778 -0.0198488
                  CHANNELS 3 Zrotation Xrotation Yrotation
                  End Site
                  {
                    OFFSET 2.33842 -0.294052 0.168128
                  }
                }
              }
              JOINT lPinky1
              {
                OFFSET 8.27202 -0.0477905 -0.4584
                CHANNELS 3 Zrotation Xrotation Yrotation
                JOINT lPinky2
                {
                  OFFSET 1.82734 -0.647385 -0.700984
                  CHANNELS 3 Zrotation Xrotation Yrotation
                  End Site
                  {
                    OFFSET 1.69225 -0.51767 -0.607171
                  }
                }
              }
            }
          }
        }
      }
    }
  }
  JOINT rButtock
  {
    OFFSET -8.77824 4.35084 1.2192
    CHANNELS 3 Zrotation Xrotation Yrotation
    JOINT rThigh
    {
      OFFSET 0 -1.70687 -2.19456
      CHANNELS 3 Zrotation Xrotation Yrotation
      JOINT rShin
      {
        OFFSET 0 -36.8199 0.73152
        CHANNELS 3 Zrotation Xrotation Yrotation
        JOINT rFoot
        {
          OFFSET 0.73152 -45.1104 -5.12064
          CHANNELS 3 Zrotation Xrotation Yrotation
          End Site
          {
            OFFSET -1.1221 -3.69964 12.103
          }
        }
      }
    }
  }
  JOINT lButtock
  {
    OFFSET 8.77824 4.35084 1.2192
    CHANNELS 3 Zrotation Xrotation Yrotation
    JOINT lThigh
    {
      OFFSET 0 -1.70687 -2.19456
      CHANNELS 3 Zrotation Xrotation Yrotation
      JOINT lShin
      {
        OFFSET 0 -36.8199 0.73152
        CHANNELS 3 Zrotation Xrotation Yrotation
        JOINT lFoot
        {
          OFFSET -0.73152 -45.1104 -5.12064
          CHANNELS 3 Zrotation Xrotation Yrotation
          End Site
          {
            OFFSET 1.1221 -3.69964 12.103
          }
        }
      }
    }
  }
}
MOTION
Frames:	7
Frame Time:	0.00833333
24.7641 45.2178 78.3346 -2.6277 -24.2637 -28.7821 3.60279 19.6634 3.36495 -4.90608 0.224082 1.10977 -24.988 35.2753 -11.1224 57.8893 -23.1676 -20.3137 -0.0 0.0 0.0 -0.0 0.0 0.0 1.54332e-14 6.05808e-13 -9.18129e-14 71.4814 29.3551 -6.549 -28.0792 -31.1088 69.0241 -0.572963 20.9942 3.09158 -4.45203e-09 1.80833e-08 1.60255e-09 -7.65999e-09 3.12541e-08 2.83138e-09 -4.45202e-09 1.80833e-08 1.60253e-09 7.73091 5.47488 0.417314 -4.45203e-09 1.80833e-08 1.60255e-09 2.90554 0.965183 0.102902 -4.45202e-09 1.80833e-08 1.60254e-09 10.2786 0.731801 0.0259123 -4.45204e-09 1.80833e-08 1.60255e-09 2.22167 -0.733487 -0.20892 1.53845e-14 6.05809e-13 -9.19841e-14 -60.0666 35.1803 8.50494 28.4166 -34.6861 -74.8268 0.133111 -10.3461 1.47023 9.04334e-10 -2.51889e-08 -5.32245e-09 1.60475e-09 -4.38079e-08 -9.18923e-09 9.04325e-10 -2.51889e-08 -5.32243e-09 -7.73091 5.47488 -0.417314 9.04336e-10 -2.51889e-08 -5.32245e-09 -2.90554 0.965183 -0.102902 9.04326e-10 -2.51889e-08 -5.32245e-09 -10.2786 0.731801 -0.0259123 9.04335e-10 -2.51889e-08 -5.32245e-09 -2.22167 -0.733487 0.20892 -2.03217e-16 0.0 -3.88251e-19 -9.48636 -68.3782 -14.7401 -173.946 77.8069 174.482 1.85131 -2.78548 10.3353 2.03217e-16 0.0 3.88251e-19 54.231 -56.0825 53.7494 174.309 76.7036 -174.763 -3.4777 -5.0493 -14.4078
24.7668 45.2057 78.3329 -2.6448 -24.2492 -28.7331 3.6017 19.6677 3.34067 -4.88719 0.241006 1.10328 -25.0168 35.2687 -11.1061 57.8574 -23.182 -20.2784 -0.0 0.0 0.0 -0.0 0.0 0.0 1.21469e-13 4.13075e-13 2.27186e-13 71.4638 29.3573 -6.53118 -28.0823 -31.1288 69.0552 -0.572505 20.9863 3.09031 -4.93097e-10 -7.31569e-10 -1.37133e-09 -8.67945e-10 -1.20066e-09 -2.36606e-09 -4.9309e-10 -7.31577e-10 -1.37134e-09 7.73091 5.47488 0.417314 -4.93096e-10 -7.31575e-10 -1.37133e-09 2.90554 0.965183 0.102902 -4.9309e-10 -7.31576e-10 -1.37133e-09 10.2786 0.731801 0.0259123 -4.93104e-10 -7.31568e-10 -1.37133e-09 2.22167 -0.733487 -0.20892 1.21433e-13 4.13074e-13 2.26972e-13 -60.0666 35.1498 8.5159 28.4175 -34.7146 -74.8739 0.13329 -10.353 1.47122 -3.47482e-10 -1.02582e-08 -3.52555e-09 -5.74088e-10 -1.79195e-08 -6.09112e-09 -3.47493e-10 -1.02582e-08 -3.52553e-09 -7.73091 5.47488 -0.417314 -3.4748e-10 -1.02582e-08 -3.52554e-09 -2.90554 0.965183 -0.102902 -3.47491e-10 -1.02582e-08 -3.52555e-09 -10.2786 0.731801 -0.0259123 -3.47479e-10 -1.02582e-08 -3.52555e-09 -2.22167 -0.733487 0.20892 -2.03217e-16 0.0 -3.88251e-19 -9.57031 -68.4222 -14.8445 -173.951 77.7981 174.487 1.85211 -2.78911 10.3336 2.03217e-16 0.0 3.88251e-19 54.282 -56.1447 53.7895 174.312 76.693 -174.766 -3.47221 -5.03312 -14.402
24.7691 45.1921 78.3305 -2.6662 -24.2317 -28.6755 3.60296 19.6744 3.31185 -4.8642 0.255383 1.09545 -25.0461 35.2593 -11.09 57.8192 -23.1961 -20.2431 -0.0 0.0 0.0 -0.0 0.0 0.0 2.23442e-13 2.18353e-13 5.55925e-13 71.4418 29.3616 -6.51337 -28.0859 -31.152 69.0915 -0.572024 20.9779 3.08896 3.35024e-09 -1.90631e-08 -4.30348e-09 5.72499e-09 -3.28187e-08 -7.48943e-09 3.35025e-09 -1.90631e-08 -4.30349e-09 7.73091 5.47488 0.417314 3.35024e-09 -1.90631e-08 -4.30348e-09 2.90554 0.965183 0.102902 3.35025e-09 -1.90631e-08 -4.30348e-09 10.2786 0.731801 0.0259123 3.35023e-09 -1.90631e-08 -4.30348e-09 2.22167 -0.733487 -0.20892 2.23415e-13 2.18352e-13 5.55663e-13 -60.0737 35.1141 8.53309 28.4186 -34.7469 -74.9273 0.13348 -10.3603 1.47228 -1.58982e-09 3.95085e-09 -1.91373e-09 -2.73509e-09 6.71108e-09 -3.31287e-09 -1.58983e-09 3.95087e-09 -1.91371e-09 -7.73091 5.47488 -0.417314 -1.58982e-09 3.95084e-09 -1.91373e-09 -2.90554 0.965183 -0.102902 -1.58983e-09 3.95085e-09 -1.91373e-09 -10.2786 0.731801 -0.0259123 -1.58981e-09 3.95084e-09 -1.91374e-09 -2.22167 -0.733487 0.20892 -2.03217e-16 0.0 -3.88251e-19 -9.65443 -68.4712 -14.9517 -173.956 77.7892 174.492 1.85242 -2.79139 10.3311 2.03217e-16 0.0 3.88251e-19 54.3393 -56.215 53.8329 174.315 76.6812 -174.769 -3.46576 -5.01538 -14.3941
24.7702 45.1779 78.3272 -2.6903 -24.2162 -28.6131 3.60906 19.684 3.2763 -4.83765 0.26438 1.08572 -25.0808 35.2462 -11.0737 57.7772 -23.2058 -20.21 -0.0 0.0 0.0 -0.0 0.0 0.0 2.71986e-13 8.50802e-14 7.38137e-13 71.4143 29.3713 -6.4941 -28.0899 -31.178 69.1326 -0.571568 20.97 3.08769 5.57105e-09 -2.95872e-08 -5.97294e-09 9.5348e-09 -5.09704e-08 -1.04067e-08 5.57106e-09 -2.95872e-08 -5.97296e-09 7.73091 5.47488 0.417314 5.57105e-09 -2.95872e-08 -5.97295e-09 2.90554 0.965183 0.102902 5.57106e-09 -2.95872e-08 -5.97295e-09 10.2786 0.731801 0.0259123 5.57105e-09 -2.95872e-08 -5.97294e-09 2.22167 -0.733487 -0.20892 2.71957e-13 8.50796e-14 7.37839e-13 -60.0926 35.0696 8.56247 28.4198 -34.7849 -74.9899 0.133682 -10.368 1.4734 -2.29921e-09 1.20459e-08 -9.97231e-10 -3.96898e-09 2.07421e-08 -1.73349e-09 -2.29922e-09 1.2046e-08 -9.97222e-10 -7.73091 5.47488 -0.417314 -2.29921e-09 1.20459e-08 -9.97234e-10 -2.90554 0.965183 -0.102902 -2.29922e-09 1.20459e-08 -9.97237e-10 -10.2786 0.731801 -0.0259123 -2.2992e-09 1.20459e-08 -9.97244e-10 -2.22167 -0.733487 0.20892 -2.03217e-16 0.0 -3.88251e-19 -9.72902 -68.5263 -15.0521 -173.96 77.7807 174.496 1.85195 -2.79065 10.3286 2.03217e-16 0.0 3.88251e-19 54.406 -56.2929 53.882 174.319 76.6681 -174.773 -3.45901 -4.99867 -14.3836
24.7701 45.1631 78.3229 -2.7193 -24.2018 -28.5447 3.62078 19.7 3.2318 -4.80596 0.266427 1.07342 -25.1224 35.2269 -11.0584 57.7275 -23.2094 -20.1829 -0.0 0.0 0.0 -0.0 0.0 0.0 2.36686e-13 1.88904e-14 7.08933e-13 71.3785 29.388 -6.47142 -28.0943 -31.2068 69.1785 -0.571064 20.9613 3.08628 5.55732e-09 -2.93145e-08 -5.89558e-09 9.51165e-09 -5.04987e-08 -1.02718e-08 5.55732e-09 -2.93145e-08 -5.89559e-09 7.73091 5.47488 0.417314 5.55732e-09 -2.93145e-08 -5.89559e-09 2.90554 0.965183 0.102902 5.55733e-09 -2.93145e-08 -5.89558e-09 10.2786 0.731801 0.0259123 5.55732e-09 -2.93145e-08 -5.89558e-09 2.22167 -0.733487 -0.20892 2.36635e-13 1.88912e-14 7.08609e-13 -60.1255 35.0135 8.60526 28.4211 -34.8298 -75.0637 0.133886 -10.3758 1.47453 -2.26338e-09 1.14365e-08 -1.09348e-09 -3.90619e-09 1.96799e-08 -1.90077e-09 -2.26339e-09 1.14365e-08 -1.09347e-09 -7.73091 5.47488 -0.417314 -2.26338e-09 1.14365e-08 -1.09348e-09 -2.90554 0.965183 -0.102902 -2.26339e-09 1.14365e-08 -1.09348e-09 -10.2786 0.731801 -0.0259123 -2.26337e-09 1.14365e-08 -1.09349e-09 -2.22167 -0.733487 0.20892 -2.03217e-16 0.0 -3.88251e-19 -9.79361 -68.5849 -15.1464 -173.963 77.7731 174.499 1.8507 -2.78643 10.327 2.03217e-16 0.0 3.88251e-19 54.4833 -56.377 53.9364 174.324 76.6537 -174.778 -3.45278 -4.9844 -14.3719
24.7688 45.1478 78.3175 -2.7508 -24.19 -28.4717 3.63676 19.7212 3.18004 -4.76941 0.263305 1.05903 -25.1682 35.2027 -11.0442 57.6702 -23.2093 -20.1596 -0.0 0.0 0.0 -0.0 0.0 0.0 1.49623e-13 -1.02887e-14 5.59396e-13 71.3359 29.4096 -6.44664 -28.099 -31.2386 69.2296 -0.570514 20.9518 3.08474 4.1828e-09 -2.24966e-08 -4.77542e-09 7.15395e-09 -3.8736e-08 -8.31445e-09 4.1828e-09 -2.24966e-08 -4.77543e-09 7.73091 5.47488 0.417314 4.18279e-09 -2.24966e-08 -4.77542e-09 2.90554 0.965183 0.102902 4.1828e-09 -2.24966e-08 -4.77542e-09 10.2786 0.731801 0.0259123 4.18279e-09 -2.24966e-08 -4.77541e-09 2.22167 -0.733487 -0.20892 1.49536e-13 -1.02858e-14 5.59048e-13 -60.1695 34.9483 8.65836 28.4225 -34.8801 -75.147 0.134095 -10.3837 1.47569 -1.78574e-09 5.38251e-09 -1.86989e-09 -3.07404e-09 9.17446e-09 -3.24144e-09 -1.78575e-09 5.38252e-09 -1.86988e-09 -7.73091 5.47488 -0.417314 -1.78574e-09 5.38251e-09 -1.86988e-09 -2.90554 0.965183 -0.102902 -1.78575e-09 5.38251e-09 -1.86989e-09 -10.2786 0.731801 -0.0259123 -1.78573e-09 5.38251e-09 -1.8699e-09 -2.22167 -0.733487 0.20892 -2.03217e-16 0.0 -3.88251e-19 -9.85278 -68.6476 -15.2388 -173.966 77.7659 174.502 1.84881 -2.77962 10.3255 2.03217e-16 0.0 3.88251e-19 54.5694 -56.468 53.9952 174.33 76.6379 -174.784 -3.44649 -4.97093 -14.3588
24.7667 45.1311 78.3107 -2.7818 -24.1819 -28.3913 3.65634 19.7404 3.12475 -4.73137 0.257213 1.04366 -25.2171 35.1781 -11.0277 57.6141 -23.2075 -20.1332 -0.0 0.0 0.0 -0.0 0.0 0.0 5.51662e-14 7.42081e-15 3.67211e-13 71.2915 29.4342 -6.42312 -28.1041 -31.2732 69.2853 -0.570083 20.9443 3.08354 2.16921e-09 -1.26709e-08 -3.17377e-09 3.69998e-09 -2.1786e-08 -5.51586e-09 2.16921e-09 -1.26709e-08 -3.17378e-09 7.73091 5.47488 0.417314 2.16921e-09 -1.26709e-08 -3.17377e-09 2.90554 0.965183 0.102902 2.16922e-09 -1.26709e-08 -3.17377e-09 10.2786 0.731801 0.0259123 2.16921e-09 -1.26709e-08 -3.17376e-09 2.22167 -0.733487 -0.20892 5.50437e-14 7.42536e-15 3.66852e-13 -60.2217 34.8787 8.72122 28.4239 -34.9344 -75.2368 0.134327 -10.3926 1.47698 -1.11635e-09 -2.7321e-09 -2.8617e-09 -1.90855e-09 -4.90134e-09 -4.95294e-09 -1.11636e-09 -2.7321e-09 -2.86169e-09 -7.73091 5.47488 -0.417314 -1.11635e-09 -2.7321e-09 -2.86169e-09 -2.90554 0.965183 -0.102902 -1.11636e-09 -2.7321e-09 -2.8617e-09 -10.2786 0.731801 -0.0259123 -1.11635e-09 -2.7321e-09 -2.8617e-09 -2.22167 -0.733487 0.20892 -2.03217e-16 0.0 -3.88251e-19 -9.90421 -68.7194 -15.3244 -173.968 77.7586 174.505 1.84615 -2.77058 10.3228 2.03217e-16 0.0 3.88251e-19 54.6636 -56.5686 54.0604 174.336 76.6211 -174.79 -3.43875 -4.95635 -14.3413
